<svg id="Layer_1" data-name="Layer 1" xmlns="http://www.w3.org/2000/svg" viewBox="0 0 949.01 285.59">
    <defs>
        <style>.cls-1,.cls-3{fill:#ffffff;}.cls-2{fill:#ffffff;}.cls-3{font-size:213.85px;font-family:YaModernPro-Bold,
            Ya Modern Pro;font-weight:700;}</style>
    </defs>
    <polygon class="cls-1"
        points="772.96 209.79 692.25 129.09 668.08 104.91 772.96 0 797.15 24.19 716.46 104.91 797.15 185.6 772.96 209.79" />
    <polygon class="cls-1"
        points="724.3 258.45 643.58 177.76 619.42 153.57 643.6 129.38 748.48 234.27 724.3 258.45" />
    <polygon class="cls-2" points="692.25 129.09 668.08 104.91 772.96 0 797.15 24.19 692.25 129.09" />
    <polygon class="cls-1"
        points="794.77 75.81 875.49 156.5 899.65 180.69 794.77 285.59 770.59 261.41 851.28 180.69 770.59 99.99 794.77 75.81" />
    <polygon class="cls-1"
        points="949.01 131.34 924.83 155.55 819.94 50.65 844.13 26.46 924.85 107.15 949.01 131.34" />
    <polygon class="cls-2"
        points="875.49 156.5 899.65 180.69 794.77 285.59 770.59 261.41 875.49 156.5" />
    <polygon class="cls-1"
        points="845.52 234.46 821.34 258.65 845.52 282.83 845.52 282.83 869.71 258.65 845.52 234.46" />
    <polygon class="cls-1"
        points="721.78 2.82 697.6 27 721.78 51.19 721.78 51.19 745.97 27 721.78 2.82" />
</svg>